<defs>
<font horiz-adv-x="546" ><font-face
    font-family="oxygen-bold"
    units-per-em="1000"
    panose-1="2 0 8 3 0 0 0 9 0 4"
    ascent="1230"
    descent="-328"
    alphabetic="0" />
<missing-glyph horiz-adv-x="289" />
<glyph unicode="&#xd;" glyph-name="uni000D" horiz-adv-x="0" />
<glyph unicode=" " glyph-name="space" horiz-adv-x="217" />
<glyph unicode="!" glyph-name="exclam" horiz-adv-x="194" d="M39 706H164V585L131 222H74L39 585V706ZM176 100T176 68T153 13T98 -10T43 13T19 68T42 123T98 147T153 124Z" />
<glyph unicode="&quot;" glyph-name="quotedbl" horiz-adv-x="315" d="M284 458H196L180 709H284V458ZM136 458H48L30 709H136V458Z" />
<glyph unicode="#" glyph-name="numbersign" horiz-adv-x="520" d="M434 527H504L494 438H417L385 276H462L453 186H371L333 -11H238L274 186H201L163 -11H66L105 186H17L24 276H121L149 437H57L64 527H164L202 710H297L262 527H338L373 710H469L434 527ZM292
276L321 438H245L215 276H292Z" />
<glyph unicode="$" glyph-name="dollar" horiz-adv-x="574" d="M274 800H324V-96H274V800ZM487 568Q416 612 294 612Q182 612 182 535Q182 498 201 479T256 448L353 416Q401 400 431 386T494 348T543 288T560 203Q560 99 484 45T285 -10Q126 -10 31 51L69 157Q107
133 166 118T284 102Q415 102 415 186Q415 210 407 227T382 257T348 276T304 293L215 323Q134 349 86 394T37 521Q37 618 109 670T294 722Q447 722 525 666L487 568Z" />
<glyph unicode="%" glyph-name="percent" horiz-adv-x="846" d="M193 407Q233 407 253 437T274 516Q274 566 254 595T194 625T134 595T114 515Q114 407 193 407ZM584 708H697Q695 704 695 704L246 -20H133L583 706L584 708ZM192 322Q111 322 65 376T18 515T65
654T194 709Q279 709 327 655T376 517V516Q376 434 326 378T192 322ZM472 183Q469 200 469 216Q469 288 518 332T648 376Q735 376 782 323T829 185Q829 103 781 48T653 -8Q569 -8 521 46T472 182V183ZM655 76Q733 76 733 185Q733 292 647 292Q604 292 590 264T575
182Q575 133 595 105T655 76Z" />
<glyph unicode="&amp;" glyph-name="ampersand" horiz-adv-x="683" d="M494 211Q527 249 563 315L652 256Q619 192 569 134L670 27L558 -8L490 63Q390 -11 273 -11Q225 -11 182 0T102 35T42 101T20 199Q20 273 61 322T175 410Q140 449 123 482T105 559Q105 641
158 682T289 724Q365 724 423 685T481 568Q481 504 441 462T332 385L494 211ZM236 349Q142 294 142 211Q142 150 179 123T277 95Q347 95 415 142L236 349ZM268 448Q297 464 312 475T344 508T360 558Q360 592 341 609T290 626Q216 626 216 555Q216 506 268 448Z"
/>
<glyph unicode="&apos;" glyph-name="quotesingle" horiz-adv-x="168" d="M136 458H48L30 709H136V458Z" />
<glyph unicode="(" glyph-name="parenleft" horiz-adv-x="304" d="M46 310Q46 432 80 530T178 731H308Q303 722 295 706T265 642T227 546T198 433T184 310Q184 220 215 115T277 -52L308 -112H178Q116 -9 81 89T46 310Z" />
<glyph unicode=")" glyph-name="parenright" horiz-adv-x="304" d="M259 432T259 310T224 90T126 -112H-3Q2 -103 10 -87T40 -23T78 74T107 187T121 310T108 431T77 546T41 641T10 708L-3 731H126Q189 627 224 530Z" />
<glyph unicode="*" glyph-name="asterisk" horiz-adv-x="517" d="M259 403L165 252L67 311L190 457L24 517L70 608L219 536L206 705H312L299 536L447 608L493 517L327 457L450 311L353 252L259 403Z" />
<glyph unicode="+" glyph-name="plus" horiz-adv-x="585" d="M33 225V322H240V516H347V322H553V225H346V30H239V225H33Z" />
<glyph unicode="," glyph-name="comma" horiz-adv-x="207" d="M74 109H191L106 -149H18L74 109Z" />
<glyph unicode="-" glyph-name="hyphen" horiz-adv-x="340" d="M307 211H34V306H307V211Z" />
<glyph unicode="." glyph-name="period" horiz-adv-x="208" d="M139 -10T107 -10T52 13T28 68T51 123T107 147T162 124T185 68T162 13Z" />
<glyph unicode="/" glyph-name="slash" horiz-adv-x="450" d="M424 731L137 -87H25L311 731H424Z" />
<glyph unicode="0" glyph-name="zero" horiz-adv-x="633" d="M244 722T317 722T444 692T528 608T573 491T587 354T573 218T529 103T445 20T317 -10T189 20T105 102T60 217T46 354T60 491T105 608T189 691ZM317 103Q442 103 442 358Q442 410 437 449T420 527T381
586T317 607T253 587T214 528T196 451T191 361H192V358Q192 305 196 265T213 185T252 125T317 103Z" />
<glyph unicode="1" glyph-name="one" horiz-adv-x="340" d="M21 527V631L165 707H282V0H146V581L21 527Z" />
<glyph unicode="2" glyph-name="two" horiz-adv-x="495" d="M63 548L24 652Q103 722 220 722Q324 722 391 665T458 508Q458 457 434 404T385 319T323 248L184 103H451L441 0H26V114L241 352Q315 431 315 508Q315 550 284 578T210 607Q130 607 63 548Z" />
<glyph unicode="3" glyph-name="three" horiz-adv-x="512" d="M483 198V192Q483 95 411 43T229 -10Q94 -10 23 52L60 151Q86 129 133 116T228 103Q277 103 307 130T338 201Q338 268 295 290T155 314H127V422H155Q239 422 283 442T328 517Q328 552 299 579T217
607Q126 607 59 567L22 667Q95 722 229 722Q334 722 398 667T462 526Q462 471 434 431T349 372Q412 356 446 310T483 198Z" />
<glyph unicode="4" glyph-name="four" horiz-adv-x="605" d="M311 706H496V256H581L575 151H496V0H351V151H41V242L311 706ZM191 256H351V546L191 256Z" />
<glyph unicode="5" glyph-name="five" horiz-adv-x="539" d="M187 439Q238 458 288 458Q382 458 442 395T502 227Q502 119 440 55T261 -10Q212 -10 159 7T76 42L47 59L87 158Q95 152 109 143T164 117T241 101Q303 101 333 136T364 229Q364 286 334 322T252 358Q199
358 162 320L74 336L92 706H476L469 598H193L187 439Z" />
<glyph unicode="6" glyph-name="six" horiz-adv-x="581" d="M312 706H484L281 443Q308 448 322 448Q430 448 497 386T565 224Q565 118 489 54T296 -10Q177 -10 101 53T24 225Q24 267 38 309T68 375T110 436L312 706ZM417 221Q417 347 292 347Q169 347 169 218Q169
160 200 128T290 95Q350 95 383 129T417 221Z" />
<glyph unicode="7" glyph-name="seven" horiz-adv-x="488" d="M25 706H480V626L243 0H103L324 601H25V706Z" />
<glyph unicode="8" glyph-name="eight" horiz-adv-x="549" d="M416 371Q525 312 525 190Q525 95 454 43T275 -10Q167 -10 96 43T24 190Q24 311 142 371Q37 427 37 536Q37 626 104 674T275 722Q379 722 446 674T513 536Q513 428 416 371ZM275 328Q154 295 154 196Q154
94 275 94Q395 94 395 197Q395 295 275 328ZM275 405Q392 433 392 530Q392 571 360 594T275 618T191 595T158 530Q158 432 275 405Z" />
<glyph unicode="9" glyph-name="nine" horiz-adv-x="593" d="M179 491Q179 365 305 365Q427 365 427 494Q427 552 396 584T307 617Q247 617 213 583T179 491ZM285 0H112L315 269Q288 264 274 264Q166 264 99 326T31 488Q31 594 107 658T300 722Q419 722 495 659T572
487Q572 445 558 403T528 337T486 276L285 0Z" />
<glyph unicode=":" glyph-name="colon" horiz-adv-x="218" d="M180 385H42V520H180V385ZM180 0H42V135H180V0Z" />
<glyph unicode=";" glyph-name="semicolon" horiz-adv-x="207" d="M190 385H51V520H190V385ZM73 119H190L130 -159H46L73 119Z" />
<glyph unicode="&lt;" glyph-name="less" horiz-adv-x="528" d="M167 272L508 121V14L17 241V302L509 535V428L167 272Z" />
<glyph unicode="=" glyph-name="equal" horiz-adv-x="578" d="M35 138V234H544V138H35ZM34 312V409H543V312H34Z" />
<glyph unicode="&gt;" glyph-name="greater" horiz-adv-x="529" d="M363 274L22 435V542L513 302V239L20 19V126L363 274Z" />
<glyph unicode="?" glyph-name="question" horiz-adv-x="433" d="M292 532Q292 574 266 599T195 625Q122 625 58 583L21 668Q107 722 209 722Q281 722 341 678T401 552Q401 513 382 473T337 400T274 318T213 221H155Q163 271 186 319T233 399T274 466T292 532ZM258
100T258 68T235 13T180 -10T125 13T101 68T124 123T180 147T235 124Z" />
<glyph unicode="@" glyph-name="at" horiz-adv-x="797" d="M461 120Q411 68 349 68Q280 68 241 115T202 235Q202 341 272 417T441 493Q498 493 583 464L594 460L592 447Q590 437 571 352T543 223Q539 199 539 183Q539 162 546 155T570 147Q619 147 647 203T676
331Q676 449 607 515T418 581H417Q406 593 385 593Q358 593 316 571T249 530T208 497H206Q187 497 156 406T124 279Q124 139 205 57T428 -25Q556 -25 640 44L650 52L704 -10L692 -20Q589 -112 427 -112Q341 -112 267 -83T142 -5Q27 108 27 279Q27 436 142 555Q192
605 264 636T418 668Q562 668 662 577Q771 479 771 329Q771 244 735 179T638 81Q600 60 558 60Q489 60 461 120ZM360 158H365Q383 159 398 168T425 190T446 225T462 265T475 312T485 358T493 405Q459 409 441 409Q382 409 344 356T305 230T360 158Z" />
<glyph unicode="A" glyph-name="A" horiz-adv-x="634" d="M502 0L425 217H216L139 0H-5L14 59L252 706H389L620 59L640 0H502ZM247 306H391L321 545L247 306Z" />
<glyph unicode="B" glyph-name="B" horiz-adv-x="639" d="M609 207Q609 100 534 50T327 0H59V706H299Q364 706 412 699T502 672T564 617T586 527Q586 437 496 383Q609 335 609 207ZM445 507Q445 570 405 588T273 606H205V425H316Q381 425 413 443T445 507ZM465
212Q465 277 430 302T317 328H205V99H308Q388 99 426 123T465 212Z" />
<glyph unicode="C" glyph-name="C" horiz-adv-x="623" d="M602 52Q515 -10 386 -10Q237 -10 136 89T35 358Q35 523 135 622T387 722Q523 722 601 653L563 550Q529 579 492 593T395 607Q301 607 242 539T183 357Q183 235 241 169T394 103Q496 103 566 156L602 52Z" />
<glyph unicode="D" glyph-name="D" horiz-adv-x="730" d="M695 351Q695 183 586 92T294 0H59V706H250Q695 706 695 351ZM550 349Q550 485 481 540T261 596H205V109H303Q422 109 486 171T550 349Z" />
<glyph unicode="E" glyph-name="E" horiz-adv-x="551" d="M519 706L507 599H205V424H496V318H205V107L533 103L527 0H59V706H519Z" />
<glyph unicode="F" glyph-name="F" horiz-adv-x="507" d="M502 706L492 599H204V417H482V311H205V0H59V706H502Z" />
<glyph unicode="G" glyph-name="G" horiz-adv-x="698" d="M516 131V285H364L370 386H646V56Q512 -10 394 -10Q231 -10 133 90T35 358Q35 517 130 619T393 722Q541 722 627 653L584 558Q500 607 400 607Q298 607 241 543T183 357V353Q183 240 235 172T389 103Q466
103 516 131Z" />
<glyph unicode="H" glyph-name="H" horiz-adv-x="719" d="M515 706H661V0H515V315H205V0H59V706H205V417H515V706Z" />
<glyph unicode="I" glyph-name="I" horiz-adv-x="276" d="M211 706V0H65V706H211Z" />
<glyph unicode="J" glyph-name="J" horiz-adv-x="310" d="M-22 -43H18Q72 -43 89 -21T106 63V706H251V68Q251 -53 200 -100T9 -148H-14L-22 -43Z" />
<glyph unicode="K" glyph-name="K" horiz-adv-x="638" d="M205 284V0H59V706H205V412L451 706H624L356 384L653 0H484L242 321L205 284Z" />
<glyph unicode="L" glyph-name="L" horiz-adv-x="490" d="M205 106H492L484 0H59V706H205V106Z" />
<glyph unicode="M" glyph-name="M" horiz-adv-x="847" d="M659 0V464L478 101H373L188 468V0H59V706H196L426 261L654 706H789V0H659Z" />
<glyph unicode="N" glyph-name="N" horiz-adv-x="707" d="M524 0L192 476V0H59V706H180L515 230V706H648V0H524Z" />
<glyph unicode="O" glyph-name="O" horiz-adv-x="778" d="M599 353Q599 469 546 538T390 607Q289 607 236 538T183 353Q183 238 236 171T390 103Q492 103 545 170T599 353ZM35 355Q35 525 134 623T389 722Q545 722 644 624T744 355Q744 186 644 88T389 -10T135
88T35 355Z" />
<glyph unicode="P" glyph-name="P" horiz-adv-x="588" d="M205 0H59V706H295Q428 706 501 652T575 486Q575 256 307 256Q241 256 205 259V0ZM284 359Q371 359 402 392T434 479V481Q434 539 398 569T296 600H205V360Q217 359 284 359Z" />
<glyph unicode="Q" glyph-name="Q" horiz-adv-x="778" d="M518 50Q575 -53 688 -156L614 -229Q566 -195 516 -131T433 -6L518 50ZM599 353Q599 469 546 538T390 607Q289 607 236 538T183 353Q183 238 236 171T390 103Q492 103 545 170T599 353ZM35 355Q35 525
134 623T389 722Q545 722 644 624T744 355Q744 186 644 88T389 -10T135 88T35 355Z" />
<glyph unicode="R" glyph-name="R" horiz-adv-x="636" d="M600 505Q600 365 474 318Q503 285 542 204L642 0H489L412 168L350 290L205 292V0H59V706H331Q466 706 533 664T600 505ZM465 503Q465 600 338 600H205V395H335Q404 395 434 420T465 503Z" />
<glyph unicode="S" glyph-name="S" horiz-adv-x="582" d="M487 568Q416 612 294 612Q182 612 182 535Q182 498 201 479T256 448L353 416Q401 400 431 386T494 348T543 288T560 203Q560 99 484 45T285 -10Q126 -10 31 51L69 157Q107 133 166 118T284 102Q415 102
415 186Q415 210 407 227T382 257T348 276T304 293L215 323Q134 349 86 394T37 521Q37 618 109 670T294 722Q447 722 525 666L487 568Z" />
<glyph unicode="T" glyph-name="T" horiz-adv-x="532" d="M338 599V0H193V599H-13V706H545V599H338Z" />
<glyph unicode="U" glyph-name="U" horiz-adv-x="678" d="M260 102T339 102T449 141T481 270V706H626V263Q626 129 555 60T339 -10T124 59T52 263V706H198V270Q198 180 229 141Z" />
<glyph unicode="V" glyph-name="V" horiz-adv-x="644" d="M392 0H263L-5 706H140L329 175L509 706H650L392 0Z" />
<glyph unicode="W" glyph-name="W" horiz-adv-x="1015" d="M133 706L272 189L448 706H568L727 184L883 706H1022L795 0H658L507 519L333 0H198L-7 706H133Z" />
<glyph unicode="X" glyph-name="X" horiz-adv-x="647" d="M664 0H498L324 256L141 0H-16L242 356L7 706H165L331 449L506 706H655L411 357L664 0Z" />
<glyph unicode="Y" glyph-name="Y" horiz-adv-x="606" d="M-18 706H133L305 411L475 706H624L379 286V0H234V286L-18 706Z" />
<glyph unicode="Z" glyph-name="Z" horiz-adv-x="591" d="M28 84L396 599H44V706H577V628L207 106H573V0H28V84Z" />
<glyph unicode="[" glyph-name="bracketleft" horiz-adv-x="295" d="M205 -3H280V-92H59V766H280V677H205V-3Z" />
<glyph unicode="\" glyph-name="backslash" horiz-adv-x="474" d="M126 713L458 -58H350L17 713H126Z" />
<glyph unicode="]" glyph-name="bracketright" horiz-adv-x="295" d="M91 677H16V766H237V-92H16V-3H91V677Z" />
<glyph unicode="^" glyph-name="asciicircum" horiz-adv-x="576" d="M20 269L256 704H318L557 269H452L286 582L126 269H20Z" />
<glyph unicode="_" glyph-name="underscore" horiz-adv-x="559" d="M34 -66H525V-158H34V-66Z" />
<glyph unicode="`" glyph-name="grave" horiz-adv-x="229" d="M-19 740H134L246 574H144Q117 601 63 656T-19 740Z" />
<glyph unicode="a" glyph-name="a" horiz-adv-x="522" d="M353 56Q275 -10 197 -10Q123 -10 78 30T33 139Q33 178 45 206T75 251T131 282T202 301T297 317L334 323V347Q334 397 321 416T258 437H251Q194 437 90 401L63 500Q142 536 263 539H275Q367 539 420 496T473
370V0H367L353 56ZM221 79Q254 79 277 89T334 122V245L297 239Q269 235 253 232T215 222T184 206T165 181T157 144Q157 114 173 97T221 79Z" />
<glyph unicode="b" glyph-name="b" horiz-adv-x="607" d="M188 0H52V731H190V460Q206 492 246 515T348 539H352Q456 539 516 460T576 267Q576 148 513 69T350 -10H343Q289 -10 250 13T190 73L188 0ZM443 263Q443 358 406 397T313 437Q260 437 224 396T188 263Q188
92 313 92Q367 92 405 132T443 263Z" />
<glyph unicode="c" glyph-name="c" horiz-adv-x="461" d="M306 90Q368 90 423 129L449 36Q380 -10 298 -10H296Q177 -10 104 62T31 271Q31 399 105 469T286 539H290Q381 538 443 492L421 400Q402 413 368 425T303 437Q241 437 203 395T164 266Q164 90 306 90Z" />
<glyph unicode="d" glyph-name="d" horiz-adv-x="605" d="M421 0L418 73Q374 -10 270 -10H263Q154 -8 93 69T32 267Q32 382 94 460T267 539Q378 539 418 460V731H556V0H421ZM294 92Q349 92 384 131T420 263Q420 354 384 395T294 437Q239 437 202 398T165 263Q165
172 202 132T294 92Z" />
<glyph unicode="e" glyph-name="e" horiz-adv-x="541" d="M168 306H390V311Q390 437 287 437Q244 437 209 407T168 306ZM515 232H167Q169 162 207 126T313 90Q400 90 462 136L500 51Q422 -10 308 -10Q175 -10 103 63T31 264Q31 383 99 461T285 539Q397 539 456
463T516 275V273Q516 266 516 253T515 234V232Z" />
<glyph unicode="f" glyph-name="f" horiz-adv-x="339" d="M87 535Q87 582 90 611T104 671T136 718T195 744T287 755H333L345 652H300Q255 652 240 632T225 562V519H341V437H225V0H87V437H3V519H87V535Z" />
<glyph unicode="g" glyph-name="g" horiz-adv-x="610" d="M297 101H301Q357 101 393 146T429 267Q429 345 393 390T301 437H298Q234 437 200 392T166 267Q166 194 203 148T297 101ZM241 -238H174L164 -131H219Q254 -131 271 -131T313 -128T349 -122T376 -111T398
-92T411 -64T421 -25T423 28V70Q374 0 275 0Q171 0 102 72T33 268Q33 395 103 467T267 539H268Q373 539 423 468V519H561V32Q561 -113 492 -175T241 -238Z" />
<glyph unicode="h" glyph-name="h" horiz-adv-x="585" d="M188 0H49V731H188V462Q263 539 355 539Q436 539 488 486T540 316V0H401V312Q401 375 385 406T323 437Q282 437 246 411T188 349V0Z" />
<glyph unicode="i" glyph-name="i" horiz-adv-x="257" d="M200 519V0H62V519H200ZM201 722V608H62V722H201Z" />
<glyph unicode="j" glyph-name="j" horiz-adv-x="270" d="M220 519V40Q220 -24 213 -64T185 -136T121 -182T12 -196H-18L-32 -94H-3Q52 -94 67 -74T82 9V519H220ZM220 722V608H82V722H220Z" />
<glyph unicode="k" glyph-name="k" horiz-adv-x="541" d="M49 731H188V322L382 519H547L340 306L570 0H401L224 253L188 226V0H49V731Z" />
<glyph unicode="l" glyph-name="l" horiz-adv-x="320" d="M196 731V203Q196 140 210 119T277 97L306 99L312 0Q285 -6 240 -6Q183 -6 146 10T90 59T65 129T58 222V722L196 731Z" />
<glyph unicode="m" glyph-name="m" horiz-adv-x="896" d="M188 355V0H50V519H167L178 450Q246 536 354 539H360Q459 539 494 451Q569 539 675 539H681Q852 539 852 318V0H714V289Q714 371 701 404T645 437H642Q566 435 522 354V0H384V298Q384 367 369 402T306
437Q236 437 188 355Z" />
<glyph unicode="n" glyph-name="n" horiz-adv-x="584" d="M401 303Q401 336 399 355T389 396T363 427T315 437Q278 437 242 412T188 354V0H49V519H165L176 450Q253 540 360 539Q451 538 495 478T540 316V0H401V303Z" />
<glyph unicode="o" glyph-name="o" horiz-adv-x="574" d="M164 539T287 539T476 464T543 263Q543 140 477 65T287 -10T98 65T31 263Q31 388 97 463ZM230 91T287 91T377 135T411 263Q411 348 378 392T287 437Q231 437 198 393T164 263Q164 180 197 136Z" />
<glyph unicode="p" glyph-name="p" horiz-adv-x="607" d="M176 519L186 450Q228 539 340 539T514 458T576 267Q576 150 515 71T345 -10H342Q235 -10 189 64V-186L51 -200V519H176ZM319 92Q372 92 407 133T443 263Q443 358 406 397T315 437Q262 437 225 396T188
263Q188 170 225 131T319 92Z" />
<glyph unicode="q" glyph-name="q" horiz-adv-x="605" d="M431 519H556V-185L418 -200V73Q392 31 357 11T262 -10Q153 -9 93 70T32 267Q32 378 93 458T267 539T421 450L431 519ZM294 92Q349 92 384 131T420 263Q420 354 384 395T294 437Q239 437 202 398T165 263Q165
172 202 132T294 92Z" />
<glyph unicode="r" glyph-name="r" horiz-adv-x="326" d="M320 519H334L341 414H304Q236 414 212 382T188 286V0H50V519H178L188 448Q214 485 244 502T320 519Z" />
<glyph unicode="s" glyph-name="s" horiz-adv-x="444" d="M400 497L376 407Q351 421 309 430T236 439Q158 439 155 396Q154 370 166 359T214 335L294 307Q349 288 386 251T423 158Q423 87 377 39T244 -9Q100 -9 26 43L53 133Q83 113 134 102T227 90Q297 90 297
143Q297 165 287 176T246 199L168 228Q103 252 68 286T33 380Q33 458 85 498T225 539Q339 539 400 497Z" />
<glyph unicode="t" glyph-name="t" horiz-adv-x="377" d="M214 436V215Q214 144 227 122T295 99L339 102L347 0Q296 -6 269 -6Q154 -6 115 47T76 223V436H-14L-6 519H76L110 708H214V519H342V436H214Z" />
<glyph unicode="u" glyph-name="u" horiz-adv-x="563" d="M45 188V519H183V190Q183 91 281 91Q380 91 380 190V519H519V188Q519 90 455 40T281 -10Q172 -10 109 39T45 188Z" />
<glyph unicode="v" glyph-name="v" horiz-adv-x="540" d="M285 145L396 519H539L348 0H219L1 519H146L285 145Z" />
<glyph unicode="w" glyph-name="w" horiz-adv-x="827" d="M579 188L688 519H825L636 0H521L412 374L280 0H166L1 519H139L232 186L355 519H475L579 188Z" />
<glyph unicode="x" glyph-name="x" horiz-adv-x="567" d="M556 0H401L287 184L163 0H13L195 263L23 519H174L287 340L407 519H550L374 265L556 0Z" />
<glyph unicode="y" glyph-name="y" horiz-adv-x="526" d="M51 -101Q119 -101 137 -94Q168 -81 190 -19Q195 -4 201 17L-8 519H131L268 173L386 519H529L316 -35Q278 -133 231 -166T95 -200H28L15 -101H51Z" />
<glyph unicode="z" glyph-name="z" horiz-adv-x="472" d="M446 92V0H32V79L268 431H44V519H438V448L203 92H446Z" />
<glyph unicode="{" glyph-name="braceleft" horiz-adv-x="385" d="M27 373H73Q104 373 113 395T123 471V611Q123 688 168 720T297 753H346V647H332Q289 647 279 631T269 563V446Q269 385 243 355T167 315Q216 305 242 275T269 184V66Q269 14 279 -1T332 -17H346V-124H297Q213
-124 168 -91T123 19V159Q123 212 114 234T73 257H27V373Z" />
<glyph unicode="|" glyph-name="bar" horiz-adv-x="177" d="M144 -137H34V732H144V-137Z" />
<glyph unicode="}" glyph-name="braceright" horiz-adv-x="385" d="M358 257H312Q281 257 272 235T262 159V19Q262 -58 217 -91T88 -124H39V-17H54Q97 -17 107 -2T117 66V184Q117 245 143 275T218 315Q169 325 143 355T117 446V563Q117 615 107 631T54 647H39V753H88Q172
753 217 721T262 611V471Q262 418 271 396T312 373H358V257Z" />
<glyph unicode="~" glyph-name="asciitilde" horiz-adv-x="692" d="M516 347Q516 350 518 355T520 362L605 335L602 323Q588 266 551 227T450 188Q402 188 339 222T242 257L241 256H240Q184 256 168 199L165 181L84 216L86 227Q97 279 137 315T239 351Q274 351
308 340T378 311T430 287Q442 283 451 283Q475 283 492 302T516 347Z" />
<glyph unicode="&#xa0;" glyph-name="nbspace" horiz-adv-x="285" />
<glyph unicode="&#xa1;" glyph-name="exclamdown" horiz-adv-x="366" d="M247 407H119V537H247V407ZM142 368H243V-188H142V368Z" />
<glyph unicode="&#xa2;" glyph-name="cent" horiz-adv-x="471" d="M274 706H324V-96H274V706ZM316 138Q378 138 433 177L459 84Q390 38 308 38H306Q187 38 114 110T41 319Q41 447 115 517T296 587H300Q391 586 453 540L431 448Q412 461 378 473T313 485Q251 485
213 443T174 314Q174 138 316 138Z" />
<glyph unicode="&#xa3;" glyph-name="sterling" horiz-adv-x="544" d="M231 246Q231 158 198 102H520V0H38L22 82L33 86Q75 104 92 132T109 217V308H19V401H109V442Q109 575 161 649T340 723Q459 723 523 632L529 623L467 554Q445 576 432 587T394 609T340 620Q230
620 230 482V402H416V308H231V246Z" />
<glyph unicode="&#xa4;" glyph-name="currency" horiz-adv-x="429" d="M213 132Q186 132 167 135L123 15L83 34L124 149Q26 201 26 324Q26 435 107 493L36 626L82 644L146 521Q177 531 216 531Q235 531 269 525L314 645L359 627L312 500Q403 446 403 327Q403 227
333 169L404 35L362 15L296 148Q258 132 213 132ZM330 320V325Q330 466 213 466Q156 466 128 428T99 325T127 224T215 186Q272 186 300 222T330 320Z" />
<glyph unicode="&#xa5;" glyph-name="yen" horiz-adv-x="597" d="M546 360V281H71V360H546ZM546 219V140H71V219H546ZM-18 706H133L305 411L475 706H624L379 286V0H234V286L-18 706Z" />
<glyph unicode="&#xa6;" glyph-name="brokenbar" horiz-adv-x="255" d="M181 424H72V732H181V424ZM181 -136H72V171H181V-136Z" />
<glyph unicode="&#xa7;" glyph-name="section" horiz-adv-x="443" d="M242 284Q297 318 297 354Q297 366 292 376T274 393T253 405T224 417T195 429Q146 400 146 363Q146 343 162 327T194 304T242 284ZM25 358Q25 430 93 476Q42 520 42 588Q42 666 102 704T250
742Q270 742 290 739T319 734T353 725T382 716L384 587Q380 589 368 595T351 603T334 610T316 617T297 622T275 626T253 627Q169 627 169 588Q169 562 194 543T257 511T331 481T393 435T419 360Q419 291 354 240Q409 199 409 132Q409 51 345 9T189 -33Q119 -33
38 0V131Q122 81 186 81Q231 81 255 94T280 130Q280 153 254 171T190 203T116 234T52 283T25 358Z" />
<glyph unicode="&#xa8;" glyph-name="dieresis" horiz-adv-x="374" d="M340 731V601H238V731H340ZM132 731V601H31V731H132Z" />
<glyph unicode="&#xa9;" glyph-name="copyright" horiz-adv-x="816" d="M399 122Q305 122 244 188T182 356Q182 456 242 525T397 594Q485 594 543 555L522 500Q464 533 402 533Q334 533 294 482T254 355Q254 282 292 234T403 185Q464 185 522 218L543 161Q485
122 399 122ZM96 486T96 355T187 132T409 40T630 132T721 355T630 578T409 671T188 579ZM39 202T39 355T147 615T409 722Q562 722 670 615T778 355Q778 203 670 97T409 -10Q255 -10 147 96Z" />
<glyph unicode="&#xaa;" glyph-name="ordfeminine" horiz-adv-x="357" d="M45 647Q88 726 187 726Q248 726 286 691T324 593L323 437Q323 418 326 375L327 359H237L236 377Q201 350 157 350H155Q102 350 65 381T27 466Q27 485 30 500T42 527T58 547T82 562T107
573T137 581T168 586T201 590T233 594Q231 625 223 634T185 644Q133 644 107 604L96 588L45 647ZM233 515Q224 514 209 512T185 509T165 506T146 501T133 494T123 483T120 467Q120 430 164 430Q224 430 233 515Z" />
<glyph unicode="&#xab;" glyph-name="guillemotleft" horiz-adv-x="455" d="M155 451H267L132 267L262 83H152L16 267L155 451ZM330 451H439L307 267L435 83H327L190 267L330 451Z" />
<glyph unicode="&#xac;" glyph-name="logicalnot" horiz-adv-x="692" d="M598 395V116H499V297H90V395H598Z" />
<glyph unicode="&#xae;" glyph-name="registered" horiz-adv-x="816" d="M333 392H390Q445 392 470 406T496 464Q496 483 491 495T478 514T455 524T425 528T385 529H333V392ZM568 464Q568 409 546 381T472 339Q511 281 590 127H507L447 240L401 331H334V127H259V590H410Q568
590 568 464ZM39 202T39 355T147 615T409 722Q562 722 670 615T778 355Q778 203 670 97T409 -10Q255 -10 147 96ZM96 486T96 355T187 132T409 40T630 132T721 355T630 578T409 671T188 579Z" />
<glyph unicode="&#xaf;" glyph-name="uni00AF" horiz-adv-x="420" d="M48 731H379V652H48V731Z" />
<glyph unicode="0;" glyph-name="degree" horiz-adv-x="411" d="M202 709Q268 709 315 669T362 563Q362 500 315 459T202 417T89 459T42 563Q42 626 88 667T202 709ZM207 624H202Q171 624 150 607T129 564Q129 537 149 520T202 503T254 520T275 564Q275 589
256 605T207 624Z" />
<glyph unicode="1;" glyph-name="plusminus" horiz-adv-x="705" d="M92 278L84 375H295V545H402V375H609V278H404V97H611V0H91V97H296V278H92Z" />
<glyph unicode="2;" glyph-name="twosuperior" horiz-adv-x="393" d="M197 722Q266 722 307 689T349 594Q349 562 338 532T302 474T260 430T207 385T163 350H341V270H50V340Q194 494 218 527Q244 563 244 592Q244 634 199 634Q143 634 94 581L42 650Q43 652
49 658T69 676T101 697T144 714T197 722Z" />
<glyph unicode="3;" glyph-name="threesuperior" horiz-adv-x="386" d="M189 640Q177 640 165 638T145 634T125 626T108 618T90 608T74 599L33 659Q100 722 191 722Q256 722 299 692T342 599Q342 528 281 502Q348 464 348 392Q348 325 303 292T191 259Q106
259 43 303L74 372Q143 343 185 343Q214 343 230 359T246 401Q246 425 231 442T189 459H126V533H188Q246 533 246 585Q246 612 230 626T189 640Z" />
<glyph unicode="4;" glyph-name="acute" horiz-adv-x="298" d="M185 761H338L186 574H104L185 761Z" />
<glyph unicode="6;" glyph-name="paragraph" horiz-adv-x="604" d="M208 371Q134 378 91 426T47 547Q47 596 68 630T130 681T214 706T317 713H512V624H472V-72H382V624H313V-72H208V371Z" />
<glyph unicode="7;" glyph-name="middot" horiz-adv-x="198" d="M34 358H164V226H34V358Z" />
<glyph unicode="8;" glyph-name="cedilla" horiz-adv-x="286" d="M133 -166H21L83 13H163L133 -166Z" />
<glyph unicode="9;" glyph-name="onesuperior" horiz-adv-x="339" d="M146 706L226 715V353H292V270H55V353H120V607L50 595V677Q108 693 146 706Z" />
<glyph unicode="a;" glyph-name="ordmasculine" horiz-adv-x="411" d="M391 538Q391 454 342 402T208 350Q121 350 72 401T22 539Q22 623 72 674T208 726T342 675T391 538ZM117 543V539Q117 432 208 432Q297 432 297 537Q297 644 206 644Q162 644 140 617T117 543Z" />
<glyph unicode="b;" glyph-name="guillemotright" horiz-adv-x="562" d="M367 83H257L390 267L261 451H370L505 267L367 83ZM181 83H71L204 267L75 451H184L320 267L181 83Z" />
<glyph unicode="c;" glyph-name="onequarter" horiz-adv-x="984" d="M704 278L630 179H704V278ZM189 703Q191 703 194 706L196 704L274 715V386H336V285H112V392H168V498V570V578Q150 570 131 564L98 551V662L115 667Q155 679 189 701V703ZM791 98L790 18H705V98H512V159L706
412H791V179H840L848 98H791ZM197 0L699 706H802Q800 704 800 703L305 0H197Z" />
<glyph unicode="d;" glyph-name="onehalf" horiz-adv-x="927" d="M513 300Q558 401 674 401Q736 401 775 370T814 284Q814 267 812 252T802 222T789 196T771 170T752 148T729 127T708 109T685 91T664 75H813V-12H512V58Q521 65 569 99T644 156T699 213T726
277Q726 314 670 314Q646 314 628 303T602 278T582 240L513 300ZM170 0L669 706H777Q775 704 775 703L276 0H170ZM199 693L264 704V376H327V295H122V382H178V594Q149 581 107 565L108 654L199 693Z" />
<glyph unicode="e;" glyph-name="threequarters" horiz-adv-x="943" d="M679 279L605 180H679V279ZM765 99V19H680V99H487V160L681 413H766V180H815L823 99H765ZM356 588Q355 538 319 506Q365 472 365 414Q365 354 321 320T212 286Q137 286 87 338L80 346L123
418L136 405Q171 371 210 371Q241 371 259 383T277 417Q277 442 256 452T192 462H187Q182 461 178 461H151V549H189Q266 549 266 587Q266 621 215 621Q176 621 135 586L122 575L81 646L88 654Q140 708 216 708Q275 708 315 676T356 589V588ZM791 696L301 -11H173L675
711V715H803Q801 712 797 706T791 696Z" />
<glyph unicode="f;" glyph-name="questiondown" horiz-adv-x="520" d="M230 185Q230 144 256 118T327 92Q400 92 464 134L501 49Q415 -5 313 -5Q241 -5 181 39T121 165Q121 204 140 244T185 317T248 399T309 496H367Q359 446 336 398T289 318T248 251T230
185ZM264 617T264 649T287 704T342 727T397 704T421 649T398 594T342 570T287 593Z" />
<glyph unicode="0;" glyph-name="Agrave" horiz-adv-x="634" d="M502 0L425 217H216L139 0H-5L14 59L252 706H389L620 59L640 0H502ZM247 306H391L321 545L247 306ZM128 947H281L393 781H291Q264 808 210 863T128 947Z" />
<glyph unicode="1;" glyph-name="Aacute" horiz-adv-x="634" d="M502 0L425 217H216L139 0H-5L14 59L252 706H389L620 59L640 0H502ZM247 306H391L321 545L247 306ZM381 968H534L382 781H300L381 968Z" />
<glyph unicode="2;" glyph-name="Acircumflex" horiz-adv-x="634" d="M502 0L425 217H216L139 0H-5L14 59L252 706H389L620 59L640 0H502ZM247 306H391L321 545L247 306ZM245 781H153L282 968H379L508 781H413L329 879L245 781Z" />
<glyph unicode="3;" glyph-name="Atilde" horiz-adv-x="634" d="M502 0L425 217H216L139 0H-5L14 59L252 706H389L620 59L640 0H502ZM247 306H391L321 545L247 306ZM403 866Q426 866 426 905H504Q504 882 503 868T494 832T469 797T422 785Q390 785 328 806T263
828Q240 828 240 785H164Q164 809 165 823T174 860T199 893T246 905Q283 905 338 886T403 866Z" />
<glyph unicode="4;" glyph-name="Adieresis" horiz-adv-x="634" d="M502 0L425 217H216L139 0H-5L14 59L252 706H389L620 59L640 0H502ZM247 306H391L321 545L247 306ZM485 912V782H383V912H485ZM277 912V782H176V912H277Z" />
<glyph unicode="5;" glyph-name="Aring" horiz-adv-x="634" d="M502 0L425 217H216L139 0H-5L14 59L252 706H389L620 59L640 0H502ZM247 306H391L321 545L247 306ZM313 752T338 752T376 768T390 806T377 844T338 860Q314 860 300 844T286 806T299 768ZM338
906Q391 906 420 877T449 806T420 734T338 703T257 734T228 806T257 876T338 906Z" />
<glyph unicode="6;" glyph-name="AE" horiz-adv-x="945" d="M488 284L463 617L284 284H488ZM512 7L498 182H233L134 7H10L398 713H885V612H563L578 417H866V316H588V311L604 109H896V7H512Z" />
<glyph unicode="7;" glyph-name="Ccedilla" horiz-adv-x="623" d="M602 52Q515 -10 386 -10Q237 -10 136 89T35 358Q35 523 135 622T387 722Q523 722 601 653L563 550Q529 579 492 593T395 607Q301 607 242 539T183 357Q183 235 241 169T394 103Q496 103 566
156L602 52ZM388 -183H276L338 -4H418L388 -183Z" />
<glyph unicode="8;" glyph-name="Egrave" horiz-adv-x="551" d="M519 706L507 599H205V424H496V318H205V107L533 103L527 0H59V706H519ZM64 947H217L329 781H227Q200 809 146 864T64 947Z" />
<glyph unicode="9;" glyph-name="Eacute" horiz-adv-x="551" d="M519 706L507 599H205V424H496V318H205V107L533 103L527 0H59V706H519ZM316 968H469L317 781H235L316 968Z" />
<glyph unicode="a;" glyph-name="Ecircumflex" horiz-adv-x="551" d="M519 706L507 599H205V424H496V318H205V107L533 103L527 0H59V706H519ZM181 781H89L218 968H315L444 781H349L265 879L181 781Z" />
<glyph unicode="b;" glyph-name="Edieresis" horiz-adv-x="551" d="M519 706L507 599H205V424H496V318H205V107L533 103L527 0H59V706H519ZM420 912V782H318V912H420ZM212 912V782H111V912H212Z" />
<glyph unicode="c;" glyph-name="Igrave" horiz-adv-x="276" d="M211 706V0H65V706H211ZM-93 947H60L172 781H70Q43 809 -11 864T-93 947Z" />
<glyph unicode="d;" glyph-name="Iacute" horiz-adv-x="276" d="M211 706V0H65V706H211ZM159 968H312L160 781H78L159 968Z" />
<glyph unicode="e;" glyph-name="Icircumflex" horiz-adv-x="276" d="M211 706V0H65V706H211ZM24 781H-68L61 968H158L287 781H192L108 879L24 781Z" />
<glyph unicode="f;" glyph-name="Idieresis" horiz-adv-x="276" d="M211 706V0H65V706H211ZM263 912V782H161V912H263ZM55 912V782H-46V912H55Z" />
<glyph unicode="&#xd0;" glyph-name="Eth" horiz-adv-x="756" d="M-1 310V404H63V706H254Q699 706 699 351Q699 183 590 92T298 0H63V310H-1ZM554 349Q554 485 485 540T265 596H209V404H292V310H209V109H307Q426 109 490 171T554 349Z" />
<glyph unicode="&#xd1;" glyph-name="Ntilde" horiz-adv-x="707" d="M524 0L192 476V0H59V706H180L515 230V706H648V0H524ZM401 866Q424 866 424 905H502Q502 882 501 868T492 832T467 797T420 785Q388 785 326 806T261 828Q238 828 238 785H162Q162 809 163 823T172
860T197 893T244 905Q281 905 336 886T401 866Z" />
<glyph unicode="&#xd2;" glyph-name="Ograve" horiz-adv-x="778" d="M599 353Q599 469 546 538T390 607Q289 607 236 538T183 353Q183 238 236 171T390 103Q492 103 545 170T599 353ZM35 355Q35 525 134 623T389 722Q545 722 644 624T744 355Q744 186 644 88T389
-10T135 88T35 355ZM180 947H333L445 781H343Q316 808 262 863T180 947Z" />
<glyph unicode="&#xd3;" glyph-name="Oacute" horiz-adv-x="778" d="M599 353Q599 469 546 538T390 607Q289 607 236 538T183 353Q183 238 236 171T390 103Q492 103 545 170T599 353ZM35 355Q35 525 134 623T389 722Q545 722 644 624T744 355Q744 186 644 88T389
-10T135 88T35 355ZM432 968H585L433 781H351L432 968Z" />
<glyph unicode="&#xd4;" glyph-name="Ocircumflex" horiz-adv-x="778" d="M599 353Q599 469 546 538T390 607Q289 607 236 538T183 353Q183 238 236 171T390 103Q492 103 545 170T599 353ZM35 355Q35 525 134 623T389 722Q545 722 644 624T744 355Q744 186 644
88T389 -10T135 88T35 355ZM297 781H205L334 968H431L560 781H465L381 879L297 781Z" />
<glyph unicode="&#xd5;" glyph-name="Otilde" horiz-adv-x="778" d="M599 353Q599 469 546 538T390 607Q289 607 236 538T183 353Q183 238 236 171T390 103Q492 103 545 170T599 353ZM35 355Q35 525 134 623T389 722Q545 722 644 624T744 355Q744 186 644 88T389
-10T135 88T35 355ZM455 866Q478 866 478 905H556Q556 882 555 868T546 832T521 797T474 785Q441 785 379 806T315 828Q292 828 292 785H216Q216 809 217 823T226 860T251 893T298 905Q335 905 390 886T455 866Z" />
<glyph unicode="&#xd6;" glyph-name="Odieresis" horiz-adv-x="778" d="M599 353Q599 469 546 538T390 607Q289 607 236 538T183 353Q183 238 236 171T390 103Q492 103 545 170T599 353ZM35 355Q35 525 134 623T389 722Q545 722 644 624T744 355Q744 186 644 88T389
-10T135 88T35 355ZM536 912V782H434V912H536ZM328 912V782H227V912H328Z" />
<glyph unicode="&#xd7;" glyph-name="multiply" horiz-adv-x="732" d="M447 273Q585 138 586 137L518 66L371 201L224 66L157 136L295 273L157 408L225 479L371 344L517 479L586 408L447 273Z" />
<glyph unicode="&#xd8;" glyph-name="Oslash" horiz-adv-x="835" d="M561 805L607 786L222 -100L178 -79L561 805ZM599 353Q599 469 546 538T390 607Q289 607 236 538T183 353Q183 238 236 171T390 103Q492 103 545 170T599 353ZM35 355Q35 525 134 623T389 722Q545
722 644 624T744 355Q744 186 644 88T389 -10T135 88T35 355Z" />
<glyph unicode="&#xd9;" glyph-name="Ugrave" horiz-adv-x="678" d="M260 102T339 102T449 141T481 270V706H626V263Q626 129 555 60T339 -10T124 59T52 263V706H198V270Q198 180 229 141ZM118 947H271L383 781H281Q254 808 200 863T118 947Z" />
<glyph unicode="&#xda;" glyph-name="Uacute" horiz-adv-x="678" d="M260 102T339 102T449 141T481 270V706H626V263Q626 129 555 60T339 -10T124 59T52 263V706H198V270Q198 180 229 141ZM371 968H524L372 781H290L371 968Z" />
<glyph unicode="&#xdb;" glyph-name="Ucircumflex" horiz-adv-x="678" d="M260 102T339 102T449 141T481 270V706H626V263Q626 129 555 60T339 -10T124 59T52 263V706H198V270Q198 180 229 141ZM235 781H143L272 968H369L498 781H403L319 879L235 781Z" />
<glyph unicode="&#xdc;" glyph-name="Udieresis" horiz-adv-x="678" d="M260 102T339 102T449 141T481 270V706H626V263Q626 129 555 60T339 -10T124 59T52 263V706H198V270Q198 180 229 141ZM474 912V782H372V912H474ZM266 912V782H165V912H266Z" />
<glyph unicode="&#xdd;" glyph-name="Yacute" horiz-adv-x="606" d="M-18 706H133L305 411L475 706H624L379 286V0H234V286L-18 706ZM389 968H542L390 781H308L389 968Z" />
<glyph unicode="&#xde;" glyph-name="Thorn" horiz-adv-x="644" d="M89 7V703H205V585H336Q463 585 541 533T620 371Q620 269 542 213T348 157H205V7H89ZM357 261Q423 261 462 291T501 377Q501 494 346 494H205V261H357Z" />
<glyph unicode="&#xdf;" glyph-name="germandbls" horiz-adv-x="614" d="M505 552Q505 522 494 496T459 449T419 414T373 384Q377 382 399 371T428 357T455 341T484 323T510 305T535 283T554 259T571 231T581 201T585 167Q585 85 529 43T383 0H250L265 92H368Q406
92 426 112T447 169Q447 196 430 219T394 255T337 287T283 317Q240 342 240 378Q240 410 275 436Q279 439 300 454T329 475T350 495T368 522T373 552Q373 585 348 603T282 622Q225 622 207 590T188 490V0H49V497Q49 604 110 663T282 722Q376 722 440 679T505 552Z"
/>
<glyph unicode="&#xe0;" glyph-name="agrave" horiz-adv-x="522" d="M353 56Q275 -10 197 -10Q123 -10 78 30T33 139Q33 178 45 206T75 251T131 282T202 301T297 317L334 323V347Q334 397 321 416T258 437H251Q194 437 90 401L63 500Q142 536 263 539H275Q367
539 420 496T473 370V0H367L353 56ZM221 79Q254 79 277 89T334 122V245L297 239Q269 235 253 232T215 222T184 206T165 181T157 144Q157 114 173 97T221 79ZM65 764H218L330 598H228Q201 626 147 681T65 764Z" />
<glyph unicode="&#xe1;" glyph-name="aacute" horiz-adv-x="522" d="M353 56Q275 -10 197 -10Q123 -10 78 30T33 139Q33 178 45 206T75 251T131 282T202 301T297 317L334 323V347Q334 397 321 416T258 437H251Q194 437 90 401L63 500Q142 536 263 539H275Q367
539 420 496T473 370V0H367L353 56ZM221 79Q254 79 277 89T334 122V245L297 239Q269 235 253 232T215 222T184 206T165 181T157 144Q157 114 173 97T221 79ZM318 785H471L319 598H237L318 785Z" />
<glyph unicode="&#xe2;" glyph-name="acircumflex" horiz-adv-x="522" d="M353 56Q275 -10 197 -10Q123 -10 78 30T33 139Q33 178 45 206T75 251T131 282T202 301T297 317L334 323V347Q334 397 321 416T258 437H251Q194 437 90 401L63 500Q142 536 263 539H275Q367
539 420 496T473 370V0H367L353 56ZM221 79Q254 79 277 89T334 122V245L297 239Q269 235 253 232T215 222T184 206T165 181T157 144Q157 114 173 97T221 79ZM183 598H91L220 785H317L446 598H351L267 696L183 598Z" />
<glyph unicode="&#xe3;" glyph-name="atilde" horiz-adv-x="522" d="M353 56Q275 -10 197 -10Q123 -10 78 30T33 139Q33 178 45 206T75 251T131 282T202 301T297 317L334 323V347Q334 397 321 416T258 437H251Q194 437 90 401L63 500Q142 536 263 539H275Q367
539 420 496T473 370V0H367L353 56ZM221 79Q254 79 277 89T334 122V245L297 239Q269 235 253 232T215 222T184 206T165 181T157 144Q157 114 173 97T221 79ZM341 680Q364 680 364 719H442Q442 696 441 682T432 646T407 611T360 599Q328 599 266 620T201 642Q178
642 178 599H102Q102 623 103 637T112 674T137 707T184 719Q221 719 276 700T341 680Z" />
<glyph unicode="&#xe4;" glyph-name="adieresis" horiz-adv-x="522" d="M353 56Q275 -10 197 -10Q123 -10 78 30T33 139Q33 178 45 206T75 251T131 282T202 301T297 317L334 323V347Q334 397 321 416T258 437H251Q194 437 90 401L63 500Q142 536 263 539H275Q367
539 420 496T473 370V0H367L353 56ZM221 79Q254 79 277 89T334 122V245L297 239Q269 235 253 232T215 222T184 206T165 181T157 144Q157 114 173 97T221 79ZM422 729V599H320V729H422ZM214 729V599H113V729H214Z" />
<glyph unicode="&#xe5;" glyph-name="aring" horiz-adv-x="522" d="M353 56Q275 -10 197 -10Q123 -10 78 30T33 139Q33 178 45 206T75 251T131 282T202 301T297 317L334 323V347Q334 397 321 416T258 437H251Q194 437 90 401L63 500Q142 536 263 539H275Q367 539
420 496T473 370V0H367L353 56ZM221 79Q254 79 277 89T334 122V245L297 239Q269 235 253 232T215 222T184 206T165 181T157 144Q157 114 173 97T221 79ZM251 635T276 635T314 651T328 689T315 727T276 743Q252 743 238 727T224 689T237 651ZM276 789Q329 789 358
760T387 689T358 617T276 586T195 617T166 689T195 759T276 789Z" />
<glyph unicode="&#xe6;" glyph-name="ae" horiz-adv-x="806" d="M765 39Q696 -10 587 -10Q460 -10 396 72Q320 -10 196 -10Q121 -10 76 38T30 152Q30 185 42 208T70 244T125 268T192 282T282 295L326 300V347Q326 395 308 417T238 442H232Q189 442 88 407L62 500Q142
537 244 539H256Q310 539 350 518T406 456Q432 489 475 513T567 539H581Q682 539 731 468T780 286V285Q780 278 780 272T779 260V259L460 235Q465 92 594 90H599Q684 90 726 124L765 39ZM219 79Q282 79 347 142L345 148Q343 153 341 162T336 181T331 202T329 222L282
215Q257 211 246 210T217 204T190 196T172 185T159 169T155 148V144Q158 79 219 79ZM460 309L654 328Q655 335 655 346Q655 360 653 373T643 403T619 428T579 438Q578 438 574 438T568 437Q469 428 460 309Z" />
<glyph unicode="&#xe7;" glyph-name="ccedilla" horiz-adv-x="461" d="M306 90Q368 90 423 129L449 36Q380 -10 298 -10H296Q177 -10 104 62T31 271Q31 399 105 469T286 539H290Q381 538 443 492L421 400Q402 413 368 425T303 437Q241 437 203 395T164 266Q164
90 306 90ZM292 -182H180L242 -3H322L292 -182Z" />
<glyph unicode="&#xe8;" glyph-name="egrave" horiz-adv-x="541" d="M168 306H390V311Q390 437 287 437Q244 437 209 407T168 306ZM515 232H167Q169 162 207 126T313 90Q400 90 462 136L500 51Q422 -10 308 -10Q175 -10 103 63T31 264Q31 383 99 461T285 539Q397
539 456 463T516 275V273Q516 266 516 253T515 234V232ZM84 764H237L349 598H247Q220 626 166 681T84 764Z" />
<glyph unicode="&#xe9;" glyph-name="eacute" horiz-adv-x="541" d="M235 761H388L236 574H154L235 761ZM168 306H390V311Q390 437 287 437Q244 437 209 407T168 306ZM515 232H167Q169 162 207 126T313 90Q400 90 462 136L500 51Q422 -10 308 -10Q175 -10 103
63T31 264Q31 383 99 461T285 539Q397 539 456 463T516 275V273Q516 266 516 253T515 234V232Z" />
<glyph unicode="&#xea;" glyph-name="ecircumflex" horiz-adv-x="541" d="M186 553H94L223 740H320L449 553H354L270 651L186 553ZM168 306H390V311Q390 437 287 437Q244 437 209 407T168 306ZM515 232H167Q169 162 207 126T313 90Q400 90 462 136L500 51Q422
-10 308 -10Q175 -10 103 63T31 264Q31 383 99 461T285 539Q397 539 456 463T516 275V273Q516 266 516 253T515 234V232Z" />
<glyph unicode="&#xeb;" glyph-name="edieresis" horiz-adv-x="541" d="M426 731V601H324V731H426ZM218 731V601H117V731H218ZM168 306H390V311Q390 437 287 437Q244 437 209 407T168 306ZM515 232H167Q169 162 207 126T313 90Q400 90 462 136L500 51Q422 -10
308 -10Q175 -10 103 63T31 264Q31 383 99 461T285 539Q397 539 456 463T516 275V273Q516 266 516 253T515 234V232Z" />
<glyph unicode="&#xec;" glyph-name="igrave" horiz-adv-x="286" d="M200 519V0H62V519H200ZM-43 764H110L222 598H120Q93 626 39 681T-43 764Z" />
<glyph unicode="&#xed;" glyph-name="iacute" horiz-adv-x="286" d="M108 761H261L109 574H27L108 761ZM200 519V0H62V519H200Z" />
<glyph unicode="&#xee;" glyph-name="icircumflex" horiz-adv-x="286" d="M58 553H-34L95 740H192L321 553H226L142 651L58 553ZM200 519V0H62V519H200Z" />
<glyph unicode="&#xef;" glyph-name="idieresis" horiz-adv-x="286" d="M298 731V601H196V731H298ZM90 731V601H-11V731H90ZM200 519V0H62V519H200Z" />
<glyph unicode="&#xf0;" glyph-name="eth" horiz-adv-x="593" d="M369 581Q468 471 513 399Q563 318 564 229H565V228Q565 118 494 55T303 -9Q186 -9 113 55T39 225Q39 326 103 386T277 447Q302 447 327 442L341 439L256 534L141 487L109 576L192 610L98 722H253L306
657L431 708L464 620L369 581ZM165 232Q165 171 203 134T307 97Q371 97 407 132T444 230Q444 294 407 331T304 368T202 332T165 232Z" />
<glyph unicode="&#xf1;" glyph-name="ntilde" horiz-adv-x="584" d="M401 303Q401 336 399 355T389 396T363 427T315 437Q278 437 242 412T188 354V0H49V519H165L176 450Q253 540 360 539Q451 538 495 478T540 316V0H401V303ZM348 680Q371 680 371 719H449Q449
696 448 682T439 646T414 611T367 599Q334 599 272 620T208 642Q185 642 185 599H109Q109 623 110 637T119 674T144 707T191 719Q228 719 283 700T348 680Z" />
<glyph unicode="&#xf2;" glyph-name="ograve" horiz-adv-x="574" d="M155 740H308L420 574H318Q291 601 237 656T155 740ZM164 539T287 539T476 464T543 263Q543 140 477 65T287 -10T98 65T31 263Q31 388 97 463ZM230 91T287 91T377 135T411 263Q411 348 378 392T287
437Q231 437 198 393T164 263Q164 180 197 136Z" />
<glyph unicode="&#xf3;" glyph-name="oacute" horiz-adv-x="574" d="M251 761H404L252 574H170L251 761ZM164 539T287 539T476 464T543 263Q543 140 477 65T287 -10T98 65T31 263Q31 388 97 463ZM230 91T287 91T377 135T411 263Q411 348 378 392T287 437Q231 437
198 393T164 263Q164 180 197 136Z" />
<glyph unicode="&#xf4;" glyph-name="ocircumflex" horiz-adv-x="574" d="M202 553H110L239 740H336L465 553H370L286 651L202 553ZM164 539T287 539T476 464T543 263Q543 140 477 65T287 -10T98 65T31 263Q31 388 97 463ZM230 91T287 91T377 135T411 263Q411
348 378 392T287 437Q231 437 198 393T164 263Q164 180 197 136Z" />
<glyph unicode="&#xf5;" glyph-name="otilde" horiz-adv-x="574" d="M164 539T287 539T476 464T543 263Q543 140 477 65T287 -10T98 65T31 263Q31 388 97 463ZM230 91T287 91T377 135T411 263Q411 348 378 392T287 437Q231 437 198 393T164 263Q164 180 197 136ZM349
680Q372 680 372 719H450Q450 696 449 682T440 646T415 611T368 599Q336 599 274 620T209 642Q186 642 186 599H110Q110 623 111 637T120 674T145 707T192 719Q229 719 284 700T349 680Z" />
<glyph unicode="&#xf6;" glyph-name="odieresis" horiz-adv-x="574" d="M442 731V601H340V731H442ZM234 731V601H133V731H234ZM164 539T287 539T476 464T543 263Q543 140 477 65T287 -10T98 65T31 263Q31 388 97 463ZM230 91T287 91T377 135T411 263Q411 348 378
392T287 437Q231 437 198 393T164 263Q164 180 197 136Z" />
<glyph unicode="&#xf7;" glyph-name="divide" horiz-adv-x="737" d="M635 225H97V322H635V225ZM442 531V399H294V531H442ZM442 142V10H294V142H442Z" />
<glyph unicode="&#xf8;" glyph-name="oslash" horiz-adv-x="578" d="M149 -92L120 -76L427 624L460 607L149 -92ZM164 539T287 539T476 464T543 263Q543 140 477 65T287 -10T98 65T31 263Q31 388 97 463ZM230 91T287 91T377 135T411 263Q411 348 378 392T287 437Q231
437 198 393T164 263Q164 180 197 136Z" />
<glyph unicode="&#xf9;" glyph-name="ugrave" horiz-adv-x="563" d="M149 740H302L414 574H312Q285 601 231 656T149 740ZM45 188V519H183V190Q183 91 281 91Q380 91 380 190V519H519V188Q519 90 455 40T281 -10Q172 -10 109 39T45 188Z" />
<glyph unicode="&#xfa;" glyph-name="uacute" horiz-adv-x="563" d="M246 761H399L247 574H165L246 761ZM45 188V519H183V190Q183 91 281 91Q380 91 380 190V519H519V188Q519 90 455 40T281 -10Q172 -10 109 39T45 188Z" />
<glyph unicode="&#xfb;" glyph-name="ucircumflex" horiz-adv-x="563" d="M196 553H104L233 740H330L459 553H364L280 651L196 553ZM45 188V519H183V190Q183 91 281 91Q380 91 380 190V519H519V188Q519 90 455 40T281 -10Q172 -10 109 39T45 188Z" />
<glyph unicode="&#xfc;" glyph-name="udieresis" horiz-adv-x="563" d="M436 731V601H334V731H436ZM228 731V601H127V731H228ZM45 188V519H183V190Q183 91 281 91Q380 91 380 190V519H519V188Q519 90 455 40T281 -10Q172 -10 109 39T45 188Z" />
<glyph unicode="&#xfd;" glyph-name="yacute" horiz-adv-x="526" d="M228 761H381L229 574H147L228 761ZM51 -101Q119 -101 137 -94Q168 -81 190 -19Q195 -4 201 17L-8 519H131L268 173L386 519H529L316 -35Q278 -133 231 -166T95 -200H28L15 -101H51Z" />
<glyph unicode="&#xfe;" glyph-name="thorn" horiz-adv-x="633" d="M78 715V729H201V459L208 466Q267 515 352 515Q471 515 532 440T594 248Q594 135 536 64T362 -8Q270 -8 209 43L201 50V-206H82V587Q82 608 80 650T78 715ZM343 96Q409 96 440 140T472 256T441
372T343 416Q270 416 235 374T200 256T235 139T343 96Z" />
<glyph unicode="&#xff;" glyph-name="ydieresis" horiz-adv-x="526" d="M418 731V601H316V731H418ZM210 731V601H109V731H210ZM51 -101Q119 -101 137 -94Q168 -81 190 -19Q195 -4 201 17L-8 519H131L268 173L386 519H529L316 -35Q278 -133 231 -166T95 -200H28L15
-101H51Z" />
</font>
</defs>
</svg>
